<?xml version="1.0" standalone="no"?>
<!DOCTYPE svg PUBLIC "-//W3C//DTD SVG 20010904//EN"
 "http://www.w3.org/TR/2001/REC-SVG-20010904/DTD/svg10.dtd">
<svg version="1.0" xmlns="http://www.w3.org/2000/svg"
 width="512.000000pt" height="512.000000pt" viewBox="0 0 512.000000 512.000000"
 preserveAspectRatio="xMidYMid meet">
<metadata>
Created by potrace 1.14, written by Peter Selinger 2001-2017
</metadata>
<g transform="translate(0.000000,512.000000) scale(0.100000,-0.100000)"
fill="#000000" stroke="none">
<path d="M2219 5085 c-517 -77 -944 -271 -1335 -606 -542 -465 -874 -1194
-874 -1919 0 -440 125 -899 351 -1285 278 -476 702 -848 1209 -1063 572 -241
1212 -266 1797 -68 599 202 1079 594 1398 1141 367 629 444 1400 210 2084
-163 475 -437 870 -819 1177 -540 435 -1270 638 -1937 539z m527 -485 c261
-21 522 -92 731 -199 232 -118 440 -272 587 -434 103 -114 379 -472 454 -589
162 -254 254 -494 288 -748 18 -140 18 -404 -1 -512 -17 -99 -69 -260 -98
-303 -21 -32 -138 -155 -147 -155 -3 0 -5 55 -6 123 -1 109 -4 132 -32 217
-40 119 -90 211 -125 228 -32 16 -33 18 -6 62 100 162 119 252 119 549 0 386
-21 473 -140 584 -81 75 -147 116 -282 171 -178 74 -353 111 -713 152 -225 26
-1235 27 -1521 1 -435 -38 -769 -119 -951 -229 -88 -53 -187 -155 -207 -213
-106 -301 -102 -716 11 -977 l25 -57 -29 -38 c-109 -138 -157 -295 -153 -497
1 -39 1 -75 1 -81 -1 -16 -111 97 -137 141 -39 66 -80 191 -99 299 -32 185
-21 479 27 674 51 213 217 538 382 749 54 70 117 154 139 187 161 238 317 392
567 561 219 149 439 240 703 294 244 49 384 58 613 40z m-1087 -1049 c22 -14
5 -40 -36 -57 -21 -8 -51 -20 -68 -28 -16 -7 -55 -24 -85 -37 -109 -48 -143
-96 -191 -277 -11 -43 -40 -140 -64 -217 -24 -77 -53 -180 -65 -230 -43 -179
-63 -237 -87 -248 -13 -6 -26 -7 -31 -3 -11 12 -7 289 7 411 28 249 88 524
123 562 58 63 442 159 497 124z m1223 -1026 c84 -12 167 -46 175 -72 3 -7 -21
-13 -74 -17 -43 -3 -134 -11 -203 -16 -69 -6 -228 -15 -355 -20 -126 -6 -243
-14 -260 -18 -16 -5 -36 -20 -44 -34 -13 -23 -12 -28 8 -57 13 -18 21 -34 19
-36 -9 -9 -77 46 -98 80 -18 30 -20 40 -11 67 24 73 132 124 291 138 121 10
438 2 552 -15z m-896 -189 c2 -107 131 -234 335 -331 230 -109 393 -93 619 58
167 112 239 198 227 273 -3 18 -2 36 3 39 12 8 166 -19 260 -45 122 -34 266
-88 412 -156 76 -35 166 -73 200 -85 108 -36 212 -14 286 62 l32 33 0 -25 c0
-14 4 -29 9 -34 13 -15 59 -160 76 -243 41 -196 -1 -436 -121 -687 -120 -254
-329 -404 -563 -405 -42 0 -78 36 -163 164 -292 437 -494 545 -1025 546 -284
0 -495 -41 -653 -127 -117 -65 -297 -270 -381 -435 -32 -62 -64 -102 -109
-133 -36 -25 -45 -27 -99 -21 -33 4 -92 16 -132 27 -209 58 -316 164 -441 439
-126 277 -151 470 -92 707 16 65 77 203 90 203 4 0 33 -18 66 -40 135 -90 194
-82 513 70 194 93 476 177 630 188 17 2 20 -4 21 -42z m749 -936 c179 -21 332
-63 423 -116 62 -37 194 -164 261 -254 81 -106 152 -222 149 -240 -6 -30 -212
-117 -403 -168 -192 -52 -360 -73 -595 -73 -291 -1 -535 39 -774 125 -84 31
-212 83 -225 92 -2 2 14 34 35 71 21 37 47 86 58 108 32 65 95 145 171 221
139 138 318 217 535 238 83 7 282 5 365 -4z"/>
<path d="M1731 1871 c-15 -27 -5 -48 26 -56 32 -8 55 11 51 44 -2 21 -9 27
-35 29 -23 2 -34 -2 -42 -17z"/>
<path d="M3452 1878 c-30 -30 0 -68 39 -48 23 13 25 46 3 54 -22 8 -28 8 -42
-6z"/>
</g>
</svg>
